Coordinates
version=1
nRows=5
nColumns=46
inDegrees=yes

Units are S.I. units (second, meters, Newtons, ...)
Angles are in degrees.

endheader
time	pelvis_tilt	pelvis_list	pelvis_rotation	pelvis_tx	pelvis_ty	pelvis_tz	bb_angle	bb_tx	bb_ty	bb_tz	hip_flexion_r	hip_adduction_r	hip_rotation_r	knee_angle_r	knee_angle_r_beta	ankle_angle_r	subtalar_angle_r	mtp_angle_r	crank_angle_r	hip_flexion_l	hip_adduction_l	hip_rotation_l	knee_angle_l	knee_angle_l_beta	ankle_angle_l	subtalar_angle_l	mtp_angle_l	crank_angle_l	lumbar_extension	lumbar_bending	lumbar_rotation	arm_flex_r	arm_add_r	arm_rot_r	elbow_flex_r	pro_sup_r	wrist_flex_r	wrist_dev_r	arm_flex_l	arm_add_l	arm_rot_l	elbow_flex_l	pro_sup_l	wrist_flex_l	wrist_dev_l
      0.00500000	    -15.60498354	     -2.48218962	      0.25613150	      0.07087166	      1.09293321	     -0.26480251	      0.00000000	      0.50000000	      0.00000000	      0.25000000	     77.55610169	     -4.45396909	     -1.74676357	     81.42555254	      1.42114399	     14.26866499	     -6.25760347	      0.00000000	      0.00000000	     51.14125476	    -10.07661271	     -0.30106723	     75.87849431	      1.32432956	     15.37469866	     -0.69518236	      0.00000000	      0.00000000	    -51.43379819	     -0.07837989	      4.42546333	     89.41624652	    -13.40946231	     41.17697683	     27.31584187	     28.20431531	      0.00000000	      0.00000000	     89.41679528	     -5.49212309	     44.87572562	     30.73282349	     29.16824731	      0.00000000	      0.00000000
      0.01000000	    -15.60784170	     -2.52903365	      0.26484016	      0.07091165	      1.09293049	     -0.26479589	      0.00000000	      0.50000000	      0.00000000	      0.25000000	     77.53991952	     -4.43688821	     -1.78207624	     81.41463170	      1.42095338	     14.29164143	     -6.23250886	      0.00000000	      0.00000000	     51.16516680	    -10.12652623	     -0.27598328	     75.89724884	      1.32465689	     15.39286817	     -0.63837576	      0.00000000	      0.00000000	    -51.43194580	     -0.03501316	      4.46892030	     89.42863378	    -13.54163075	     41.72166257	     27.23556128	     28.55755692	      0.00000000	      0.00000000	     89.41512868	     -5.74768691	     45.49813630	     30.95608982	     29.63751017	      0.00000000	      0.00000000
      0.01500000	    -15.60106224	     -2.51070842	      0.26859155	      0.07088769	      1.09292421	     -0.26478821	      0.00000000	      0.50000000	      0.00000000	      0.25000000	     77.53575803	     -4.43332278	     -1.75505403	     81.41662106	      1.42098810	     14.28624384	     -6.27877775	      0.00000000	      0.00000000	     51.16840235	    -10.11157141	     -0.28778796	     75.90389296	      1.32477285	     15.33620285	     -0.68782310	      0.00000000	      0.00000000	    -51.43301070	     -0.08552083	      4.61988241	     89.39642942	    -13.68455149	     40.89678936	     27.52333476	     28.08834367	      0.00000000	      0.00000000	     89.43243170	     -5.16556325	     44.91842213	     30.42655051	     29.12177622	      0.00000000	      0.00000000
      0.02000000	    -15.41025273	     -2.57444949	      0.25758826	      0.07100929	      1.09336177	     -0.26487029	      0.00000000	      0.50000000	      0.00000000	      0.25000000	     77.26261007	     -4.39306291	     -1.80901353	     81.38261897	      1.42039465	     14.43013400	     -6.19228528	      0.00000000	      0.00000000	     50.92370005	    -10.16331485	     -0.26206908	     75.87422602	      1.32425506	     15.45057019	     -0.57309102	      0.00000000	      0.00000000	    -51.71868555	     -0.04507816	      4.67167525	     89.40106070	    -13.61592142	     40.18897803	     27.72411283	     28.26011200	      0.00000000	      0.00000000	     89.40906500	     -5.22857255	     44.17528334	     30.97688081	     29.34335738	      0.00000000	      0.00000000
      0.02500000	    -15.62855511	     -2.55316891	      0.28766918	      0.07089658	      1.09311552	     -0.26492869	      0.00000000	      0.50000000	      0.00000000	      0.25000000	     77.51714166	     -4.42364712	     -1.75823089	     81.39447668	      1.42060161	     14.38748167	     -6.32652599	      0.00000000	      0.00000000	     51.18680264	    -10.06528359	     -0.19287086	     75.87850815	      1.32432980	     15.29695744	     -0.82692663	      0.00000000	      0.00000000	    -51.40748317	     -0.02441330	      4.46421847	     89.41902673	    -13.49824760	     41.35362906	     27.10144547	     28.91397344	      0.00000000	      0.00000000	     89.42057972	     -5.61775667	     45.25377415	     30.69818843	     30.02719069	      0.00000000	      0.00000000
